# xmcd
#
# Track frame offsets:
#	180
#	13159
#	25288
#	36471
#	49184
#	62294
#	75091
#	88572
#	102823
#	116470
#	132637
#	145506
#	157698
#	171053
#	184491
#	199576
#
# Disc length: 2821 seconds
#
# Revision: 1
# Processed by: cddbd v1.5.2PL0 Copyright (c) Steve Scherf et al.
# Submitted via: audiograbber 1.83.01
#
DISCID=c50b0310
DTITLE=Various Artist - Blues Blues Blues CD3
DYEAR=1900
DGENRE=Blues
TTITLE0=Big Bill Broonzy - Jivin' Mr.Fuller Blues
TTITLE1=Brownie Mc Ghee - Me and my Dog Blues
TTITLE2=Brownie Mc Ghee - Got to find my little Woman
TTITLE3=Big Joe Williams - Crawling King Snake
TTITLE4=Arthur Big Boy Crudup - Rock me, Mama
TTITLE5=Big Joe Turner - Howlin' Winds
TTITLE6=Big Joe Turner - Johnson and Turner Blues
TTITLE7=Big Boy Crudup - Chicago Blues
TTITLE8=Big Boy Crudup - That's why i'm lonesome
TTITLE9=B.B.King - The One Night Blues
TTITLE10=Muddy Waters - Louisiana Blues
TTITLE11=John Lee Hooker - House rent Boogie
TTITLE12=John Lee Hooker - John L's House rent Boogie
TTITLE13=Joe Williams - Kansas City Blues
TTITLE14=F.Dixon, Ch.Norris, M.Davis - Chicken shake Boogie
TTITLE15=Tiny Gimes - Hawaiian Boogie
EXTD=
EXTT0=
EXTT1=
EXTT2=
EXTT3=
EXTT4=
EXTT5=
EXTT6=
EXTT7=
EXTT8=
EXTT9=
EXTT10=
EXTT11=
EXTT12=
EXTT13=
EXTT14=
EXTT15=
PLAYORDER=
